<svg width="62" height="53" viewBox="0 0 62 53" fill="none" xmlns="http://www.w3.org/2000/svg">
<path opacity="0.05" d="M28.459 0C8.94426 9.82239 0 24.3514 0 39.2896C0 46.861 4.47213 53 11.9934 53C18.4984 53 23.377 48.2934 23.377 41.7452C23.377 34.9923 18.4984 30.2857 13.8229 30.2857C9.5541 30.2857 6.91147 32.5367 5.89508 36.834H5.08197C5.28524 22.9189 14.0262 10.4363 28.459 2.25096V0ZM62 0C42.4852 9.82239 33.541 24.3514 33.541 39.2896C33.541 46.861 38.0131 53 45.5344 53C52.0393 53 56.918 48.2934 56.918 41.7452C56.918 34.9923 51.6328 30.2857 47.3639 30.2857C43.0951 30.2857 40.4525 32.5367 39.4361 36.834H38.6229C38.8262 22.9189 47.5672 10.4363 62 2.25096V0Z" fill="black"/>
</svg>
