<svg width="20" height="20" viewBox="0 0 20 20" fill="none" xmlns="http://www.w3.org/2000/svg">
<path d="M16.3854 2.21761C16.2421 2.01185 16.0492 1.86138 15.8071 1.76592C15.6529 1.69991 15.4912 1.66684 15.3223 1.66684V1.66669H3.77775C3.60887 1.66669 3.4474 1.69975 3.29315 1.76577C3.05085 1.86114 2.85801 2.01181 2.71483 2.21746C2.57169 2.4231 2.5 2.65067 2.5 2.90041V17.0996C2.5 17.3495 2.57169 17.5769 2.71483 17.7828C2.85801 17.9884 3.05085 18.139 3.29315 18.2344C3.44725 18.3004 3.60887 18.3334 3.77775 18.3334C4.12303 18.3334 4.42764 18.2121 4.69208 17.97L9.55005 13.2991L14.408 17.9701C14.6651 18.2047 14.9699 18.3222 15.3222 18.3222C15.5059 18.3222 15.6675 18.2931 15.807 18.2343C16.0492 18.139 16.2421 17.9883 16.3853 17.7825C16.5285 17.5769 16.6 17.3494 16.6 17.0996V2.90057C16.6001 2.65082 16.5284 2.42326 16.3854 2.21761ZM15.1901 16.7579L10.5305 12.2856L9.55005 11.3494L8.5697 12.2856L3.91013 16.7579V3.07685H15.1901V16.7579Z" fill="#1F1F1F"/>
</svg>
