<svg width="20" height="20" viewBox="0 0 20 20" fill="none" xmlns="http://www.w3.org/2000/svg">
<path d="M17.4127 1.66669H2.58521C2.07749 1.66699 1.66591 2.07878 1.66602 2.58669V17.4142C1.66632 17.9219 2.0781 18.3335 2.58602 18.3334H10.569V11.888H8.4043V9.36525H10.569V7.50867C10.569 5.35565 11.8834 4.18378 13.804 4.18378C14.7239 4.18378 15.5144 4.25234 15.7448 4.28296V6.53322H14.4204C13.3755 6.53322 13.1732 7.02974 13.1732 7.7585V9.36525H15.6715L15.346 11.888H13.1732V18.3334H17.4127C17.9207 18.3335 18.3326 17.9218 18.3327 17.4138C18.3327 17.4137 18.3327 17.4136 18.3327 17.4134V2.58588C18.3325 2.07817 17.9206 1.66659 17.4127 1.66669Z" fill="#1F1F1F"/>
</svg>
