<svg width="240" height="240" viewBox="0 0 240 240" fill="none" xmlns="http://www.w3.org/2000/svg">
<circle cx="120" cy="120" r="120" fill="#F8F0E6"/>
<ellipse cx="141.446" cy="110.749" rx="14.9295" ry="16.2278" fill="#CF9C56"/>
<path d="M183.638 114.968L196.944 102.635" stroke="#CF9C56" stroke-width="2"/>
<path d="M185.261 119.837H207.006" stroke="#CF9C56" stroke-width="2"/>
<path d="M185.909 126.652C188.181 129.14 192.92 134.441 193.699 135.74" stroke="#CF9C56" stroke-width="2"/>
<path d="M104.122 129.249L106.718 69.2062C106.826 67.367 108.341 63.7536 113.534 64.0133C118.727 64.2729 153.995 66.0688 170.98 66.9343C172.603 66.9343 175.783 68.0378 175.524 72.4517C175.264 76.8657 174.766 81.8638 174.55 83.8112L168.708 181.502C168.6 183.558 167.085 187.604 161.892 187.344C156.7 187.085 156.483 187.236 157.024 187.344" stroke="#CF9C56" stroke-width="2"/>
<path d="M49.5964 157.81C54.3566 156.836 64.3962 154.499 66.4733 152.941C69.0698 150.994 78.1573 117.889 85.2975 107.504C92.4377 97.1178 94.7096 92.2495 99.5779 93.5477C104.446 94.8459 108.665 95.4953 104.771 110.1C101.655 121.784 98.4961 132.278 97.306 136.065L168.059 88.6796C170.98 87.2732 177.536 85.5639 180.392 89.9779C183.962 95.4953 182.34 99.7142 173.901 105.881C167.15 110.814 147.72 126.76 138.849 134.117C148.261 129.141 168.059 118.863 171.954 117.565C176.822 115.942 181.69 128.275 176.822 132.819C172.927 136.454 153.346 149.696 144.042 155.862L171.954 141.257C174.55 141.041 179.159 142.62 176.822 150.669C176.215 152.761 174.644 154.84 172.511 156.823C175.124 156.322 176.822 156.957 176.822 159.432C176.822 169.494 176.822 173.388 155.077 186.37C133.332 199.353 116.779 202.274 107.043 202.274C97.306 202.274 71.0171 208.116 66.4733 209.738C61.9295 211.361 58.0349 212.659 56.0875 207.467C54.5297 203.312 49.3801 174.578 47 160.731C47 159.432 48.5579 158.027 49.5964 157.81Z" fill="#F8F0E6" stroke="#CF9C56" stroke-width="2"/>
<path d="M178.445 88.3553C175.602 89.8948 171.305 91.2763 168.555 95.288C167.01 97.5423 167.844 100.896 168.91 102.215C169.977 103.535 173.778 105.238 175.2 104.908" stroke="#CF9C56" stroke-width="2"/>
<path d="M58.359 152.617C58.2508 151.319 57.5152 149.112 55.438 150.67C52.8416 152.617 54.1398 163.327 55.438 168.52C56.4766 172.674 57.8181 176.526 58.359 177.932M58.359 177.932C59.9818 177.932 63.2924 178.451 63.552 180.529C63.8766 183.125 61.2801 188.643 60.631 191.564C59.9819 194.484 60.9556 198.055 62.2538 199.028C63.552 200.002 66.473 200.326 67.1221 199.677M58.359 177.932C57.7099 178.581 56.4118 178.581 55.438 181.178C54.8681 182.697 57.0609 186.046 59.3328 186.695C61.6047 187.344 66.1485 189.292 67.7712 191.564C69.394 193.835 67.7712 199.028 67.1221 199.677M67.1221 199.677C68.0958 203.356 70.4975 211.037 72.315 212.335C74.5869 213.958 77.1208 214.1 77.8324 213.958C81.078 213.309 80.7534 210.712 80.4289 210.063" stroke="#CF9C56" stroke-width="2"/>
<ellipse cx="116.455" cy="73.1006" rx="3.57011" ry="3.89466" fill="#CF9C56"/>
<path d="M84.9731 108.153C85.8386 109.343 88.9976 112.567 92.1134 110.749C96.008 108.477 97.6308 106.855 100.227 99.0652C100.884 97.0946 99.5781 94.4132 99.5781 93.8723" stroke="#CF9C56" stroke-width="2"/>
</svg>
