<svg width="240" height="240" viewBox="0 0 240 240" fill="none" xmlns="http://www.w3.org/2000/svg">
<circle cx="120" cy="120" r="120" fill="#F8F0E6"/>
<path d="M190.906 101.196H145.441L146.572 140.652H191.661L190.906 101.196Z" stroke="#CF9C56" stroke-width="2"/>
<path d="M191.379 144.316H147.413V150.516L191.379 151.925V144.316Z" stroke="#CF9C56" stroke-width="2"/>
<path d="M117.821 104.014H73.8555V110.214L117.821 111.623V104.014Z" stroke="#CF9C56" stroke-width="2"/>
<path d="M191.661 157.562H167.987V163.992L191.661 165.453V157.562Z" stroke="#CF9C56" stroke-width="2"/>
<path d="M133.04 115.851H73.8555V122.281L133.04 123.742V115.851Z" stroke="#CF9C56" stroke-width="2"/>
<path d="M77.8011 184.9L82.8741 176.445C83.5317 171.278 85.016 160.718 85.6924 159.817C86.5379 158.689 94.1473 152.489 95.2747 151.925C96.1765 151.474 98.8445 151.737 100.066 151.925" stroke="#CF9C56" stroke-width="2"/>
<path d="M76.9556 181.035H62.5823L63.8325 162.412V128.625V85.2604C63.0324 78.0243 67.3332 76.5698 69.5837 76.7471H79.3356H125.595C149.433 76.481 198.059 76.1086 201.86 76.7471C205.661 77.3856 205.444 83.7528 204.861 86.8566V181.035L99.2203 181.799" stroke="#CF9C56" stroke-width="2"/>
<path d="M66.528 88.2314H200.679" stroke="#CF9C56" stroke-width="2"/>
<path d="M70.0378 81.6638C69.8522 81.7435 69.6748 81.8201 69.5007 81.9132C69.3564 81.9903 69.2665 82.0724 69.1427 82.1839C68.959 82.3493 68.8322 82.5755 68.8082 82.8299C68.7844 83.083 68.7585 83.3436 68.8244 83.5905C68.8836 83.8125 68.9121 84.0826 69.1153 84.2251C69.47 84.4738 69.7685 84.737 70.2069 84.8258C70.4322 84.8714 70.6905 84.8371 70.9206 84.8371C71.1477 84.8371 71.298 84.7285 71.4975 84.6508C71.6587 84.5879 71.7544 84.3982 71.8841 84.2931C72.0238 84.18 72.083 83.8684 72.1191 83.7038C72.2277 83.209 72.1419 82.7209 71.8605 82.2935C71.6041 81.9039 71.1983 81.7145 70.7764 81.5618C70.6442 81.514 70.5149 81.4825 70.3735 81.4825C70.2755 81.4825 69.9935 81.4368 69.926 81.5052" stroke="#CF9C56" stroke-width="2" stroke-linecap="round" stroke-linejoin="round"/>
<path d="M75.6744 81.6638C75.4888 81.7435 75.3114 81.8201 75.1373 81.9132C74.993 81.9903 74.9031 82.0724 74.7793 82.1839C74.5956 82.3493 74.4688 82.5755 74.4448 82.8299C74.421 83.083 74.3951 83.3436 74.461 83.5905C74.5202 83.8125 74.5487 84.0826 74.7519 84.2251C75.1066 84.4738 75.4051 84.737 75.8435 84.8258C76.0688 84.8714 76.3271 84.8371 76.5572 84.8371C76.7843 84.8371 76.9346 84.7285 77.1341 84.6508C77.2953 84.5879 77.391 84.3982 77.5207 84.2931C77.6604 84.18 77.7196 83.8684 77.7557 83.7038C77.8643 83.209 77.7785 82.7209 77.4971 82.2935C77.2407 81.9039 76.8349 81.7145 76.413 81.5618C76.2808 81.514 76.1515 81.4825 76.0101 81.4825C75.9121 81.4825 75.6301 81.4368 75.5625 81.5052" stroke="#CF9C56" stroke-width="2" stroke-linecap="round" stroke-linejoin="round"/>
<path d="M80.7473 81.6638C80.5617 81.7435 80.3843 81.8201 80.2102 81.9132C80.0658 81.9903 79.976 82.0724 79.8522 82.1839C79.6685 82.3493 79.5416 82.5755 79.5177 82.8299C79.4939 83.083 79.468 83.3436 79.5339 83.5905C79.5931 83.8125 79.6216 84.0826 79.8248 84.2251C80.1795 84.4738 80.478 84.737 80.9164 84.8258C81.1416 84.8714 81.4 84.8371 81.6301 84.8371C81.8572 84.8371 82.0075 84.7285 82.2069 84.6508C82.3682 84.5879 82.4639 84.3982 82.5936 84.2931C82.7333 84.18 82.7925 83.8684 82.8286 83.7038C82.9371 83.209 82.8513 82.7209 82.57 82.2935C82.3136 81.9039 81.9078 81.7145 81.4858 81.5618C81.3537 81.514 81.2244 81.4825 81.083 81.4825C80.9849 81.4825 80.7029 81.4368 80.6354 81.5052" stroke="#CF9C56" stroke-width="2" stroke-linecap="round" stroke-linejoin="round"/>
<path d="M52.0001 59.9133C53.9536 60.4399 55.7459 61.0724 57.78 61.0724C58.5693 61.0724 59.3204 60.9853 60.0949 60.9436C60.7002 60.9109 61.3299 60.2064 61.9527 60.1708C62.3436 60.1485 63.3694 59.4304 63.6041 59.1405C64.0167 58.6308 64.5956 58.0485 65.1301 57.6595C66.786 56.4542 68.1421 54.5882 69.5166 53.0875C69.7213 52.864 69.1289 53.1158 68.9858 53.3164C68.7868 53.5954 68.4623 53.8764 68.3223 54.1822C68.032 54.8161 67.765 55.5767 67.3344 56.114C66.5297 57.1181 66.2568 59.0338 66.494 60.271C66.8173 61.9577 67.2134 63.8346 67.9242 65.3868C68.3052 66.2188 68.8188 67.0924 69.4429 67.7694C70.0684 68.4478 70.4026 69.3113 71.109 69.9588C71.2957 70.1299 72.4909 71.0086 71.7725 70.6599C70.9797 70.2752 70.2636 69.7012 69.3249 69.7012C68.6264 69.7012 67.9409 69.4691 67.2312 69.4436C66.4959 69.4172 65.7604 69.3148 65.0048 69.3148C63.5364 69.3148 61.6788 70.1729 60.5519 71.0678C59.2102 72.1332 58.2787 73.3436 57.1165 74.5379C57.0172 74.6399 56.6845 75.0968 56.7479 74.9815C56.8817 74.7379 57.1506 74.5478 57.3081 74.2803C57.4462 74.0458 57.6688 73.8379 57.8095 73.5648C57.9036 73.3822 58.1637 72.9073 58.3108 72.7849C58.9631 72.2423 58.847 71.3051 59.1365 70.6027C59.41 69.9391 59.2987 68.8787 59.2987 68.1557C59.2987 65.6392 57.2611 64.2351 55.384 62.8182C54.3153 62.0115 52.7744 61.545 52.1328 60.2996" stroke="#CF9C56" stroke-width="2" stroke-linecap="round" stroke-linejoin="round"/>
<path d="M42.0001 72.1424C42.7815 72.3818 43.4984 72.6693 44.3121 72.6693C44.6278 72.6693 44.9282 72.6297 45.238 72.6107C45.4802 72.5959 45.732 72.2756 45.9811 72.2595C46.1375 72.2493 46.5478 71.9229 46.6417 71.7912C46.8068 71.5595 47.0383 71.2948 47.2521 71.1179C47.9145 70.5701 48.4569 69.7219 49.0067 69.0398C49.0886 68.9382 48.8516 69.0526 48.7944 69.1438C48.7148 69.2706 48.585 69.3984 48.529 69.5374C48.4129 69.8255 48.3061 70.1712 48.1338 70.4155C47.812 70.8719 47.7028 71.7426 47.7977 72.305C47.927 73.0717 48.0854 73.9248 48.3698 74.6303C48.5222 75.0086 48.7276 75.4056 48.9772 75.7133C49.2274 76.0217 49.3611 76.4142 49.6437 76.7085C49.7184 76.7863 50.1965 77.1857 49.9091 77.0272C49.592 76.8524 49.3055 76.5914 48.93 76.5914C48.6506 76.5914 48.3764 76.486 48.0926 76.4744C47.7985 76.4623 47.5042 76.4158 47.202 76.4158C46.6146 76.4158 45.8716 76.8059 45.4209 77.2126C44.8841 77.6969 44.5116 78.2471 44.0467 78.7899C44.007 78.8363 43.8739 79.044 43.8992 78.9916C43.9528 78.8809 44.0603 78.7945 44.1233 78.6729C44.1786 78.5663 44.2676 78.4718 44.3239 78.3476C44.3615 78.2646 44.4656 78.0488 44.5244 77.9932C44.7853 77.7465 44.7389 77.3205 44.8547 77.0012C44.9641 76.6996 44.9195 76.2176 44.9195 75.889C44.9195 74.7451 44.1045 74.1069 43.3537 73.4628C42.9262 73.0961 42.3098 72.8841 42.0532 72.318" stroke="#CF9C56" stroke-width="2" stroke-linecap="round" stroke-linejoin="round"/>
<path d="M48.4082 87.73C49.2936 88.2849 50.0836 88.8833 51.0872 89.1332C51.4766 89.2301 51.8601 89.2704 52.2485 89.3405C52.552 89.3954 52.9675 89.0514 53.2801 89.1066C53.4763 89.1413 54.0893 88.8379 54.2483 88.6934C54.5277 88.4393 54.9001 88.1621 55.2217 87.9951C56.2181 87.4778 57.165 86.5285 58.0666 85.7999C58.2009 85.6914 57.8711 85.7692 57.7707 85.8716C57.631 86.0139 57.429 86.1421 57.3144 86.3078C57.0768 86.6512 56.8318 87.0733 56.5394 87.3417C55.9928 87.8433 55.5729 88.9554 55.5057 89.7244C55.4141 90.7729 55.33 91.9439 55.4496 92.9595C55.5137 93.5039 55.6369 94.0893 55.8441 94.5709C56.0516 95.0535 56.088 95.6109 56.3401 96.0848C56.4067 96.2101 56.8655 96.8824 56.563 96.5857C56.2291 96.2582 55.9613 95.8269 55.4982 95.7116C55.1536 95.6258 54.8499 95.4028 54.5036 95.3004C54.1448 95.1943 53.7971 95.0427 53.4243 94.9499C52.6999 94.7695 51.6556 95.0545 50.9664 95.4511C50.1458 95.9235 49.506 96.5329 48.7548 97.1043C48.6906 97.1531 48.4584 97.3855 48.5068 97.3243C48.6091 97.1951 48.7701 97.1145 48.8877 96.9738C48.9907 96.8505 49.1315 96.7536 49.2415 96.6075C49.3152 96.5099 49.5142 96.2578 49.605 96.2027C50.0076 95.9584 50.0899 95.3836 50.3373 94.9991C50.5711 94.6359 50.6741 93.9881 50.7817 93.5557C51.1564 92.0508 50.3603 90.9608 49.6451 89.8829C49.238 89.2692 48.5472 88.8009 48.4161 87.9773" stroke="#CF9C56" stroke-width="2" stroke-linecap="round" stroke-linejoin="round"/>
<path d="M88.8877 159.698C89.0885 159.421 89.3446 158.942 89.6848 158.763C89.8369 158.683 90.0562 158.616 90.183 158.503C90.3986 158.31 90.6866 158.209 90.9026 158.005C91.1286 157.791 91.447 157.674 91.6775 157.457C91.9578 157.192 92.2661 156.95 92.5355 156.671C93.109 156.076 93.778 155.567 94.4563 155.115C94.7867 154.895 95.0993 154.643 95.425 154.418C95.7356 154.203 96.1375 153.925 96.5044 153.82C96.8728 153.715 97.1654 153.4 97.509 153.25C97.9684 153.049 98.5564 152.863 99.0506 152.774C99.5698 152.679 100.026 152.279 100.542 152.176C100.94 152.096 101.365 151.889 101.741 151.738C101.884 151.681 102.048 151.696 102.189 151.628C102.352 151.549 102.558 151.488 102.737 151.478C102.89 151.47 103.032 151.379 103.197 151.379C103.317 151.379 103.677 151.444 103.772 151.368C103.924 151.246 104.378 151.329 104.58 151.329C104.863 151.329 105.014 151.34 105.256 151.478C105.582 151.665 105.825 152.211 105.923 152.552C105.991 152.792 105.975 153.044 105.975 153.297C105.975 153.575 105.833 153.704 105.726 153.944C105.465 154.531 104.757 154.692 104.204 154.891C103.766 155.049 103.329 155.12 102.887 155.267C102.463 155.408 102.054 155.625 101.652 155.774C101.488 155.834 101.386 155.985 101.232 156.051C101.063 156.122 100.882 156.237 100.744 156.361C100.384 156.685 99.9414 156.924 99.6374 157.307C99.3298 157.694 98.9103 157.946 98.5635 158.292C98.2293 158.627 97.924 159.038 97.5561 159.327C97.2018 159.606 96.931 159.957 96.5846 160.249C96.3425 160.453 96.1391 160.717 95.9149 160.941C95.7552 161.101 95.6337 161.223 95.5606 161.442C95.4625 161.736 95.1648 162.041 95.1648 162.364C95.1648 162.506 95.0652 162.624 95.0652 162.759C95.0652 162.901 95.0652 163.044 95.0652 163.186" stroke="#CF9C56" stroke-width="2" stroke-linecap="round" stroke-linejoin="round"/>
<path d="M105.975 152.176C106.234 151.986 106.489 151.805 106.673 151.54C106.816 151.333 106.953 151.161 107.143 151.005C107.341 150.844 107.518 150.697 107.719 150.543C107.951 150.366 108.011 150.35 108.22 150.532C108.584 150.851 109.106 151.017 109.44 151.351C109.608 151.519 110.096 151.659 110.005 151.977C109.955 152.152 109.608 152.326 109.49 152.475C109.32 152.692 109.102 152.875 108.915 153.073C108.753 153.244 108.517 153.37 108.416 153.596C108.354 153.737 108.08 154.029 107.946 154.108C107.617 154.302 107.388 154.749 107.121 155.016C106.945 155.192 106.771 155.614 106.573 155.713" stroke="#CF9C56" stroke-width="2" stroke-linecap="round" stroke-linejoin="round"/>
<path d="M108.068 150.183C108.52 150 108.94 149.761 109.407 149.613C109.577 149.559 109.764 149.478 109.911 149.375C110.016 149.301 110.198 149.242 110.285 149.156C110.378 149.063 111.187 148.429 111.203 148.544C111.278 149.066 111.119 149.748 110.857 150.194C110.672 150.51 110.574 150.878 110.448 151.218C110.419 151.297 110.312 151.602 110.26 151.628" stroke="#CF9C56" stroke-width="2" stroke-linecap="round" stroke-linejoin="round"/>
<path d="M108.217 153.77C108.76 153.679 108.712 153.935 108.915 154.29C108.967 154.381 109.014 154.578 109.014 154.692C109.014 154.927 108.924 155.008 108.865 155.215C108.653 155.955 107.565 155.985 106.975 155.837C106.657 155.758 106.275 155.708 105.975 155.574C105.815 155.503 105.137 155.506 105.018 155.602C104.776 155.796 104.369 155.837 104.132 156.062C103.904 156.278 103.604 156.412 103.385 156.632C103.122 156.895 103.028 157.182 102.862 157.481C102.803 157.586 102.717 157.808 102.69 157.93C102.661 158.061 102.557 158.191 102.541 158.303C102.487 158.676 102.243 159.073 102.09 159.419C101.976 159.674 101.802 159.983 101.738 160.271C101.653 160.653 101.39 160.972 101.281 161.342C101.168 161.728 100.8 162.017 100.656 162.377C100.438 162.923 99.8558 163.273 99.5488 163.734" stroke="#CF9C56" stroke-width="2" stroke-linecap="round" stroke-linejoin="round"/>
<path d="M105.477 155.663C105.897 155.747 106.285 155.979 106.634 156.211C106.888 156.381 107.151 156.365 107.282 156.66C107.376 156.872 107.318 157.103 107.409 157.307C107.499 157.51 107.47 157.807 107.47 158.03C107.47 158.582 107.566 159.228 107.467 159.771C107.345 160.444 106.936 161.001 106.723 161.642" stroke="#CF9C56" stroke-width="2" stroke-linecap="round" stroke-linejoin="round"/>
<path d="M106.772 161.691C106.713 161.995 106.682 162.329 106.673 162.638C106.667 162.837 106.535 163.028 106.523 163.236C106.508 163.5 106.289 163.807 106.186 164.044C105.974 164.53 105.725 165.065 105.389 165.477C104.697 166.326 104.185 167.294 103.659 168.242C103.081 169.282 102.744 170.433 102.15 171.467C101.718 172.219 101.366 172.969 100.855 173.675C100.472 174.205 100.217 174.841 99.8505 175.391C99.6458 175.698 99.5122 176.037 99.2997 176.341C99.096 176.632 98.8827 176.967 98.724 177.284C98.4753 177.782 98.1356 178.228 97.9297 178.754C97.7909 179.109 97.531 179.408 97.3789 179.753C97.2295 180.093 97.0421 180.412 96.8835 180.747C96.4563 181.649 95.9531 182.528 95.5633 183.451C95.253 184.186 94.8766 184.891 94.578 185.632C94.2875 186.353 93.8776 187.028 93.5983 187.746C93.3308 188.434 92.9685 189.079 92.5521 189.689C92.2534 190.127 92.0506 190.761 91.6775 191.134" stroke="#CF9C56" stroke-width="2" stroke-linecap="round" stroke-linejoin="round"/>
<path d="M102.737 155.663C101.27 156.775 100.171 158.251 98.9123 159.56C98.3213 160.175 97.7781 160.875 97.1327 161.464C96.5771 161.972 96.0187 162.459 95.4914 162.987C95.2193 163.259 94.914 163.487 94.6417 163.759C94.4152 163.985 94.193 164.216 93.9443 164.409C93.6814 164.614 93.5301 165.046 93.2496 165.217C92.9569 165.396 92.7401 165.763 92.5134 166.014C92.3088 166.242 92.0457 166.409 91.8519 166.646C91.6613 166.879 91.3713 167.129 91.1545 167.346C90.9202 167.58 90.6983 167.774 90.6286 168.087C90.5798 168.307 90.5816 168.549 90.5816 168.793C90.5816 169.385 90.8499 169.685 91.2679 170.072C91.6491 170.425 92.4369 170.306 92.8206 169.986C93.0045 169.833 93.1605 169.64 93.3326 169.474C93.5819 169.234 93.7892 169.018 94.0301 168.777C94.4368 168.37 94.6818 167.854 95.0901 167.445C96.1125 166.423 97.1521 165.433 98.1789 164.406C98.2905 164.295 98.3667 164.155 98.5027 164.072C98.5857 164.021 98.6152 163.914 98.7019 163.858C98.8022 163.794 98.9037 163.728 98.9898 163.645C99.2664 163.379 99.6221 163.207 99.8478 162.898C100.174 162.452 100.599 162.086 100.994 161.691" stroke="#CF9C56" stroke-width="2" stroke-linecap="round" stroke-linejoin="round"/>
<path d="M92.3749 166.324C93.1259 166.761 94.1277 167.398 94.4174 168.267" stroke="#CF9C56" stroke-width="2" stroke-linecap="round" stroke-linejoin="round"/>
<path d="M76.7819 185.455C77.2624 185.724 77.7678 185.921 78.2516 186.177C78.4878 186.302 78.7156 186.334 78.9352 186.501C79.1848 186.691 79.5588 186.795 79.8485 186.911C80.7095 187.255 81.5799 187.575 82.4363 187.924C82.8551 188.094 83.2323 188.346 83.6458 188.533C83.8328 188.617 83.9794 188.749 84.1606 188.84C84.3831 188.951 84.6742 189.022 84.8747 189.169C85.7966 189.845 86.8822 190.273 87.8914 190.796C89.1446 191.446 90.3836 192.097 91.1518 193.304C91.4114 193.712 91.2432 193.87 91.03 194.273C90.8689 194.577 90.65 194.93 90.5816 195.272C90.5035 195.662 90.2192 196.005 90.0585 196.362C89.911 196.69 89.7072 197.021 89.5133 197.323C89.4029 197.494 89.3133 197.673 89.1867 197.835C89.0508 198.008 88.9988 198.219 88.8629 198.385C88.7081 198.575 88.6015 198.887 88.4893 199.105C88.3431 199.389 88.2612 199.709 88.1295 200.002C87.8956 200.522 87.8407 201.102 87.6423 201.635C87.3598 202.394 87.2463 203.231 87.0196 204.012C86.4415 206.003 86.0736 208.05 85.4393 210.026C85.2381 210.653 85.0968 211.292 84.8802 211.911C84.7477 212.29 84.5825 212.713 84.5038 213.107C84.4476 213.388 84.321 213.671 84.3045 213.951C84.2933 214.141 83.604 213.718 83.5572 213.702C82.5789 213.358 81.6951 212.808 80.7176 212.445C79.5697 212.019 78.5699 211.302 77.4545 210.812C76.3177 210.313 75.2595 209.63 74.2357 208.939C73.0651 208.148 71.736 207.726 70.5159 207.026C70.107 206.792 69.7322 206.515 69.3092 206.304C68.773 206.036 68.3345 205.619 67.7759 205.371C67.4215 205.214 67.1707 204.939 66.8598 204.732C66.5611 204.533 66.2832 204.302 65.9769 204.115C65.8466 204.035 65.7657 203.897 65.6254 203.818C65.4935 203.744 64.4446 202.978 64.4879 202.891C64.711 202.445 65.0918 201.99 65.4012 201.596C65.6403 201.292 65.9068 201.021 66.1208 200.688C66.3187 200.38 66.5013 200.063 66.691 199.753C67.1575 198.989 67.5827 198.177 68.1246 197.461C68.6913 196.712 69.1745 195.896 69.7575 195.158C70.0136 194.834 70.2456 194.491 70.5021 194.17C70.8194 193.774 70.9941 193.263 71.3268 192.878C71.8485 192.274 72.1775 191.519 72.6968 190.913C73.3107 190.197 73.8024 189.349 74.3408 188.571C74.8032 187.903 75.2751 187.229 75.7108 186.551C75.9278 186.213 76.3359 185.728 76.6823 185.554" stroke="#CF9C56" stroke-width="2" stroke-linecap="round" stroke-linejoin="round"/>
<path d="M85.8488 194.123C86.0976 194.357 86.44 194.664 86.7455 194.821C87.0004 194.952 87.3359 195.035 87.5426 195.241C87.7061 195.405 88.034 195.525 88.1515 195.717C88.2136 195.819 88.3856 195.864 88.4891 195.917C88.5508 195.948 88.8949 196.066 88.7382 196.066" stroke="#CF9C56" stroke-width="2" stroke-linecap="round" stroke-linejoin="round"/>
<path d="M87.3931 194.671C87.2094 194.712 86.9448 194.967 86.9448 195.194C86.9448 195.309 86.8113 195.601 86.906 195.706C87.0406 195.856 87.2527 195.818 87.4153 195.892C87.5912 195.971 87.7864 196.023 87.9439 195.892C88.1103 195.753 88.1314 195.624 88.229 195.418C88.2931 195.283 88.1274 195.061 88.0934 194.942C88.003 194.626 87.6607 194.435 87.4928 194.771" stroke="#CF9C56" stroke-width="2" stroke-linecap="round" stroke-linejoin="round"/>
<path d="M72.1486 191.831C72.7327 191.95 73.3517 192.201 73.9033 192.429C74.318 192.6 74.754 192.777 75.1598 192.974C75.5215 193.15 75.9163 193.329 76.3001 193.445C76.6969 193.565 77.0568 193.826 77.4293 194.012C78.1094 194.352 78.7649 194.823 79.4746 195.094C80.2703 195.399 81.0374 195.791 81.8244 196.116C82.4667 196.381 83.1373 196.628 83.7562 196.938C84.3751 197.247 84.8956 197.694 85.4999 198.02C85.9231 198.248 86.3473 198.577 86.7177 198.88C86.89 199.021 87.0599 199.312 87.2435 199.404" stroke="#CF9C56" stroke-width="2" stroke-linecap="round" stroke-linejoin="round"/>
<path d="M74.0707 137.057C79.0231 136.833 83.8262 136.697 88.7433 136.801C90.9897 136.849 93.2433 136.801 95.4902 136.801C97.2932 136.801 99.1054 136.694 100.916 136.673C103.544 136.644 106.25 136.537 108.87 136.318C111.385 136.109 113.931 136.162 116.455 136.162C118.852 136.162 121.249 135.816 123.642 135.779C125.436 135.751 127.223 135.651 129.011 135.651C129.892 135.651 130.773 135.651 131.653 135.651C132.15 135.651 132.702 135.564 133.131 135.779" stroke="#CF9C56" stroke-width="2" stroke-linecap="round" stroke-linejoin="round"/>
<path d="M74.0707 143.321C77.0335 143.321 79.9836 143.576 82.941 143.576C85.4419 143.576 87.9307 143.96 90.4336 143.96C95.3022 143.96 100.126 143.065 104.978 143.065C106.102 143.065 107.168 142.809 108.281 142.809C109.797 142.809 111.3 142.746 112.812 142.674C114.517 142.593 116.209 142.573 117.918 142.554C119.582 142.535 121.23 142.298 122.904 142.298C126.177 142.298 129.45 142.17 132.747 142.17" stroke="#CF9C56" stroke-width="2" stroke-linecap="round" stroke-linejoin="round"/>
<path d="M175.004 160.481C175.004 161.449 175.642 162.22 176.678 162.22C177.132 162.22 177.647 162.263 177.951 161.871C178.288 161.438 178.483 161.137 178.483 160.574C178.483 160.204 178.443 159.942 178.141 159.708C177.952 159.561 177.573 159.485 177.337 159.552C177.148 159.606 177.407 160.387 177.458 160.477C177.677 160.866 177.996 161.221 178.424 161.381C178.687 161.48 179.767 161.836 179.973 161.474C180.054 161.334 180.579 160.418 180.284 160.418C179.829 160.418 179.955 161.073 180.049 161.412C180.287 162.267 181.307 162.491 182.071 162.579C182.862 162.669 183.715 162.027 183.873 161.24C183.926 160.973 184.018 159.897 183.576 159.922C183.3 159.937 183.327 160.423 183.327 160.591C183.327 161.01 183.418 161.266 183.748 161.536C184.345 162.025 185.244 162.158 185.998 162.158" stroke="#CF9C56" stroke-width="2" stroke-linecap="round" stroke-linejoin="round"/>
</svg>
