<svg width="240" height="240" viewBox="0 0 240 240" fill="none" xmlns="http://www.w3.org/2000/svg">
<circle cx="120" cy="120" r="120" fill="#F8F0E6"/>
<path d="M124.908 115.82C122.253 114.625 115.908 111.917 111.766 110.643C106.589 109.05 95.4392 112.236 91.0588 112.236C86.6784 112.236 84.6873 109.847 82.6962 108.652C80.7051 107.457 71.9442 101.086 69.9531 99.493C67.962 97.9001 54.4225 90.3336 49.6438 87.1478C45.8209 84.5992 43.8033 85.2895 43.2723 85.9532L38.0954 93.5194L25.7506 113.032L18.5826 124.183C17.388 126.572 15.7154 131.749 18.5826 133.342C22.1666 135.333 38.0955 143.297 40.0866 144.89C42.0777 146.483 53.2279 148.872 59.9976 159.226C65.4134 167.509 67.2983 171.173 67.5638 171.969" stroke="#CF9C56" stroke-width="2"/>
<path d="M138.845 147.678C143.491 151.66 153.898 160.261 158.358 162.81C163.933 165.996 171.101 170.376 172.694 173.96C174.287 177.544 174.287 183.916 173.491 184.712C172.694 185.509 171.101 188.296 165.526 187.5C161.066 186.863 144.288 177.411 136.456 172.766" stroke="#CF9C56" stroke-width="2"/>
<path d="M163.535 187.5C164.066 189.889 164.332 194.986 161.146 196.261C157.164 197.854 150.394 199.447 146.412 197.854C142.43 196.261 127.695 186.703 126.899 185.111" stroke="#CF9C56" stroke-width="2"/>
<path d="M144.819 197.456C145.084 199.712 144.739 204.385 141.235 205.022C136.854 205.818 135.659 206.615 131.677 205.022C128.491 203.748 121.058 198.119 117.74 195.465" stroke="#CF9C56" stroke-width="2"/>
<path d="M131.677 205.818C131.544 207.676 130.244 211.393 126.102 211.393C121.961 211.393 118.801 210.596 117.74 210.198" stroke="#CF9C56" stroke-width="2"/>
<path d="M174.685 179.536L189.419 167.987L193.003 166.394C203.888 160.819 226.773 149.032 231.233 146.483C235.693 143.935 234.684 140.643 233.622 139.315C228.578 131.218 216.897 112.157 210.525 100.688C202.561 86.3522 202.959 91.5291 201.366 91.9273C200.092 92.2459 176.942 107.458 165.526 115.024C160.217 111.838 146.571 106.661 134.465 111.44C119.333 117.413 105.793 132.147 101.413 139.315C97.0323 146.483 94.2447 151.66 96.634 155.244C99.0234 158.828 103.404 160.819 108.979 156.041C114.554 151.262 125.306 142.501 126.102 139.315C126.899 136.129 131.677 152.457 152.385 146.483C168.951 141.705 168.048 141.041 165.526 141.306" stroke="#CF9C56" stroke-width="2"/>
<path d="M103.005 136.926C104.2 136.262 106.908 135.652 108.182 138.519C109.775 142.103 108.58 146.483 106.988 148.475C105.58 150.234 102.607 153.253 100.616 154.05C98.6249 154.846 96.6338 154.05 95.8374 153.253" stroke="#CF9C56" stroke-width="2"/>
<path d="M188.225 100.289C196.587 115.023 214.348 146.005 218.49 152.058" stroke="#CF9C56" stroke-width="2"/>
<path d="M220.083 134.536L224.463 144.492" stroke="#CF9C56" stroke-width="2"/>
<ellipse cx="221.675" cy="139.315" rx="2.78754" ry="3.18577" fill="#CF9C56"/>
<path d="M64.1942 176.179C65.0695 175.564 65.9507 174.959 66.8487 174.393C67.1723 174.189 67.5223 174.141 67.8286 173.891C68.1434 173.633 68.6805 173.683 69.0566 173.5C69.3655 173.35 69.8554 173.006 70.1729 172.948C70.9514 172.807 71.6954 172.464 72.4614 172.272C73.2614 172.072 74.1448 172.011 74.9174 171.77C75.8428 171.48 76.7307 171.408 77.7021 171.379C78.5098 171.355 79.3396 171.156 80.1581 171.156C81.5421 171.156 83.3547 170.829 84.5367 171.602C85.5618 172.273 86.1566 172.927 86.9058 173.891C87.2229 174.298 87.1911 175.066 87.1911 175.565C87.1911 176.214 87.3027 176.853 87.3027 177.519C87.3027 178.734 86.6535 179.347 86.0747 180.359C85.7956 180.848 85.192 181.201 84.7351 181.494C84.1505 181.87 83.6712 182.521 82.9986 182.766C81.8231 183.193 80.8781 184.197 79.6867 184.639C78.1752 185.199 76.7309 186.06 75.1345 186.425C73.724 186.747 72.2768 186.988 70.8365 187.113C69.2146 187.254 67.7243 187.419 66.0796 187.12C65.4619 187.007 64.4297 186.97 64.0578 186.338C63.9899 186.223 63.6558 185.715 63.574 185.668C63.3202 185.523 63.3209 185.09 63.1399 184.887C62.4149 184.071 62.2372 182.585 62.1848 181.538C62.082 179.482 62.6923 177.218 64.4175 176.068" stroke="#CF9C56" stroke-width="2" stroke-linecap="round" stroke-linejoin="round"/>
<path d="M76.6971 171.714C75.04 172.401 73.9943 174.029 73.4349 175.646C72.9913 176.927 73.5643 178.392 74.0427 179.528C75.0482 181.916 78.0893 183.77 80.6043 183.77" stroke="#CF9C56" stroke-width="2" stroke-linecap="round" stroke-linejoin="round"/>
<path d="M85.0697 181.538C86.0711 180.965 87.7004 180.594 88.8653 180.533C89.8991 180.478 90.9381 180.31 91.9911 180.31C93.1812 180.31 94.4994 180.452 95.6502 180.781C96.4343 181.005 97.2552 181.591 97.6597 182.319C98.0427 183.008 98.6433 183.725 98.6892 184.552C98.7016 184.774 98.9125 184.866 98.9125 185.116C98.9125 185.491 99.0241 185.843 99.0241 186.22C99.0241 186.66 99.0241 187.101 99.0241 187.541C99.0241 188.451 98.7017 189.389 98.3295 190.133C97.9808 190.831 97.3761 191.375 96.9898 192.031C96.6816 192.555 95.3158 193.526 94.6703 193.594C93.662 193.7 92.8106 194.041 91.7678 194.041C91.3224 194.041 90.804 194.114 90.3662 194.035C89.8462 193.94 88.9432 193.83 88.5304 193.483C88.4 193.373 88.19 193.289 88.028 193.253C87.789 193.2 87.5901 192.867 87.3582 192.757C86.8655 192.524 86.426 192.102 85.9628 191.808C85.5488 191.545 84.92 191.362 84.7348 190.853C84.6142 190.521 84.413 190.098 84.2634 189.799C83.7626 188.797 83.6184 187.632 83.6184 186.499C83.6184 185.538 83.5824 184.607 83.8665 183.683C84.0175 183.193 84.4767 182.225 84.958 181.984" stroke="#CF9C56" stroke-width="2" stroke-linecap="round" stroke-linejoin="round"/>
<path d="M79.8235 184.552C78.4514 185.349 77.0006 186.019 75.5813 186.728C74.9286 187.055 73.9835 187.811 73.7952 188.564C73.6321 189.216 73.3486 189.698 73.3486 190.406C73.3486 191.039 73.2494 191.717 73.5161 192.304C73.6552 192.61 73.5766 193.022 73.7394 193.315C73.8345 193.486 73.9968 193.846 74.0184 194.041C74.0975 194.752 75.0094 195.335 75.3829 195.802C76.1648 196.779 77.4011 197.631 78.5955 197.973C80.5279 198.525 82.4932 198.729 84.5122 198.729C85.9671 198.729 87.5031 198.751 88.8659 198.221C90.3603 197.639 91.6397 196.96 92.7732 195.827C93.1578 195.442 93.5189 195.081 93.8895 194.71C94.1445 194.455 94.4359 193.933 94.7826 193.817" stroke="#CF9C56" stroke-width="2" stroke-linecap="round" stroke-linejoin="round"/>
<path d="M98.4658 190.58C97.9996 190.5 101.809 189.065 104.023 190C105.199 190.496 107.017 191.787 107.18 192.924C107.379 194.318 107.18 195.575 107.18 197C107.18 197.729 106.901 198.504 106.504 199.089C106.504 200.466 105.397 200.424 104.804 200.652C104.506 200.767 104.332 201.057 104.023 201.16C103.645 201.286 103.303 201.41 102.937 201.57C102.33 201.836 101.46 201.936 100.81 201.967C100.087 202.001 99.3053 202.03 98.6333 201.731C97.797 201.359 97.0842 201.143 96.4068 200.466C95.6471 199.706 94.4823 198.857 94.3415 197.731C94.1889 196.51 94.3412 195.197 94.3412 194" stroke="#CF9C56" stroke-width="2" stroke-linecap="round" stroke-linejoin="round"/>
<path d="M93.8891 195.269C93.6757 196.576 92.9448 197.76 92.6673 199.008C92.3686 200.353 92.2146 201.683 92.2146 203.083C92.2146 204.201 92.5034 205.111 92.8844 206.159C93.4106 207.606 94.3724 208.45 95.8365 208.938C96.6305 209.202 97.398 209.558 98.2491 209.558C99.0964 209.558 99.8862 209.42 100.699 209.335C101.211 209.281 102.137 208.74 102.485 208.392C102.737 208.14 103.024 207.929 103.266 207.66C103.483 207.42 103.501 207.051 103.657 206.773C104.108 205.972 104.782 204.659 104.829 203.753C104.863 203.113 105.276 202.569 105.276 201.911C105.276 201.585 105.318 200.898 105.499 200.627" stroke="#CF9C56" stroke-width="2" stroke-linecap="round" stroke-linejoin="round"/>
<path d="M106.169 199.957C107.509 198.932 108.688 197.852 110.275 197.364C111.579 196.963 112.717 197.297 113.928 197.836C114.796 198.221 115.581 199.11 115.77 199.957C115.884 200.472 116 201.5 116 202C116 203 115.77 203.138 115.77 203.697C115.77 204.682 114.513 205.714 113.872 206.32C112.912 207.226 111.358 207.101 110.144 207.101C108.961 207.101 107.457 206.045 106.671 205.259C106.137 204.725 105.387 203.337 105.387 202.524" stroke="#CF9C56" stroke-width="2" stroke-linecap="round" stroke-linejoin="round"/>
<path d="M105.388 203.418C105.187 204.355 104.83 205.182 104.83 206.153C104.83 206.557 104.606 206.828 104.606 207.238C104.606 208.145 104.495 209.12 104.495 210.06C104.495 210.46 104.944 211.103 105.14 211.456C105.337 211.811 105.56 212.39 105.859 212.659C106.097 212.873 106.485 213.124 106.796 213.292C107.212 213.516 108.097 213.675 108.576 213.689C108.939 213.699 109.195 213.912 109.58 213.912C110.923 213.912 112.942 214.28 114.145 213.515C115.035 212.948 115.547 211.651 115.547 210.65C115.547 209.486 115.77 208.334 115.77 207.152C115.77 206.181 115.547 205.287 115.547 204.311" stroke="#CF9C56" stroke-width="2" stroke-linecap="round" stroke-linejoin="round"/>
<path d="M106.816 83.8119C110.277 82.3978 115.404 80.6671 116.568 76.4767C117.293 73.8656 117.485 71.4515 117.485 68.7341C117.485 68.0272 117.318 67.351 117.318 66.678C117.318 65.9341 116.818 65.2735 116.818 64.5571C116.818 63.2576 116.651 64.556 116.651 65.1777C116.651 66.1624 116.91 66.7583 117.402 67.632C118.155 68.972 119.217 70.738 120.523 71.6422C121.232 72.1334 121.896 72.8338 122.579 73.3926C123.247 73.9395 124.146 74.211 124.857 74.6429C126.511 75.6469 128.884 76.31 130.822 76.31C131.097 76.31 132.735 76.31 131.905 76.31C131.102 76.31 130.289 76.2678 129.488 76.31C127.752 76.4014 126.41 78.5671 125.32 79.5793C124.521 80.3211 124.213 81.6984 123.82 82.6819C123.338 83.8856 123.214 85.2272 122.903 86.4699C122.403 88.4694 123.153 90.6523 123.153 92.6288C123.153 92.986 123.486 94.7293 123.486 93.981C123.486 93.1506 123.486 92.3201 123.486 91.4897C123.486 88.1094 120.849 85.2811 117.985 83.8489C116.231 82.9719 113.753 82.6987 111.817 82.6449C110.838 82.6177 109.764 82.6018 108.825 82.895C108.299 83.0595 107.233 83.3105 106.982 83.8119" stroke="#CF9C56" stroke-width="2" stroke-linecap="round" stroke-linejoin="round"/>
<path d="M132.989 97.8151C135.593 96.8926 136.681 94.8953 138.064 92.7212C138.74 91.6583 139.157 89.8284 139.157 88.5628C139.157 87.8024 139.416 86.3635 138.999 85.738C138.876 85.5531 138.99 86.1826 138.99 86.4049C138.99 86.6365 138.918 86.9687 139.074 87.1551C139.468 87.6281 139.724 88.3518 140.065 88.887C140.735 89.9405 141.274 90.629 142.408 91.2394C143.503 91.8291 144.695 92.2014 145.909 92.4712C147.016 92.7173 148.248 93.1473 149.391 93.1473C150.495 93.1473 147.239 93.6567 146.196 94.0178C144.883 94.4724 143.954 95.8357 143.528 97.1112C143.161 98.2132 143.325 99.483 143.325 100.649C143.325 101.335 143.441 101.957 143.491 102.613C143.518 102.957 143.861 103.95 143.825 103.02C143.728 100.51 141.936 99.062 139.824 98.1114C138.748 97.6274 137.173 97.4817 135.99 97.4817C135.545 97.4817 135.1 97.4817 134.656 97.4817C134.112 97.4817 133.821 97.8155 133.322 97.9818" stroke="#CF9C56" stroke-width="2" stroke-linecap="round" stroke-linejoin="round"/>
<path d="M139.324 76.4765C140.532 76.2112 140.983 75.6519 141.741 74.8095C142.31 74.1769 143.219 73.6653 143.575 72.8831C144.183 71.5458 144.325 70.4135 144.325 68.9747C144.325 68.4922 144.313 67.652 144.075 67.2243C143.913 66.9336 143.992 68.1089 143.992 68.3449C143.992 70.0542 145.137 70.9348 146.251 72.0495C146.603 72.4014 147.255 72.4037 147.668 72.6515C148.41 73.0966 149.239 73.0289 149.993 73.3461C150.625 73.6121 152.534 73.8308 152.049 73.3461C151.81 73.1071 149.512 73.7516 149.169 73.9018C148.228 74.3133 147.856 75.1311 147.65 76.0598C147.347 77.4228 146.889 79.7927 147.529 81.1443C147.751 81.6119 147.898 81.9544 147.696 81.274C147.487 80.5674 147.295 80.0142 147.002 79.3291C146.609 78.4131 146.025 77.963 145.149 77.3934C143.987 76.638 143.124 76.3098 141.787 76.3098C141.01 76.3098 140.402 76.4765 139.657 76.4765" stroke="#CF9C56" stroke-width="2" stroke-linecap="round" stroke-linejoin="round"/>
<path d="M77.476 100.054C78.4948 99.2427 79.9201 97.404 77.4702 96.5439C74.408 95.4687 66.2281 102.503 62.634 106.47C59.7586 109.643 57.3035 112.899 56.4354 114.131M56.4354 114.131C57.3377 115.48 58.747 118.52 57.1649 119.891C55.1874 121.604 49.1578 122.514 46.3691 123.599C43.5804 124.684 41.1545 127.478 41.0671 129.099C40.9797 130.719 42.3342 133.327 43.2347 133.506M56.4354 114.131C55.5349 113.952 54.8131 112.874 52.1136 113.508C50.5338 113.879 48.9697 117.564 49.6935 119.813C50.4173 122.062 51.3254 126.922 50.3394 129.534C49.3535 132.146 44.1351 133.684 43.2347 133.506M43.2347 133.506C40.7189 136.361 35.6702 142.628 35.6018 144.86C35.5163 147.651 36.807 149.836 37.321 150.348C39.6653 152.685 41.6428 150.972 42.0018 150.341" stroke="#CF9C56" stroke-width="2"/>
</svg>
