<svg width="24" height="24" viewBox="0 0 24 24" fill="none" xmlns="http://www.w3.org/2000/svg">
<path opacity="0.4" d="M11.997 5.84284C8.58969 5.84284 5.83984 8.5927 5.83984 12C5.83984 15.4073 8.58969 18.1572 11.997 18.1572C15.4043 18.1572 18.1542 15.4073 18.1542 12C18.1542 8.5927 15.4043 5.84284 11.997 5.84284ZM11.997 16.0017C9.79351 16.0017 7.99529 14.2035 7.99529 12C7.99529 9.79651 9.79351 7.9983 11.997 7.9983C14.2005 7.9983 15.9987 9.79651 15.9987 12C15.9987 14.2035 14.2005 16.0017 11.997 16.0017ZM18.4063 4.1557C17.6108 4.1557 16.9684 4.79813 16.9684 5.59367C16.9684 6.38921 17.6108 7.03164 18.4063 7.03164C19.2019 7.03164 19.8443 6.39221 19.8443 5.59367C19.8445 5.40477 19.8075 5.21767 19.7353 5.0431C19.6631 4.86853 19.5572 4.70992 19.4237 4.57634C19.2901 4.44277 19.1315 4.33686 18.9569 4.26468C18.7823 4.1925 18.5952 4.15546 18.4063 4.1557ZM23.9991 12C23.9991 10.3429 24.0141 8.70077 23.9211 7.04665C23.828 5.12536 23.3897 3.4202 21.9847 2.01525C20.5768 0.607302 18.8746 0.172008 16.9533 0.0789456C15.2962 -0.0141173 13.6541 0.000892936 12 0.000892936C10.3429 0.000892936 8.70077 -0.0141173 7.04665 0.0789456C5.12536 0.172008 3.4202 0.610305 2.01525 2.01525C0.607303 3.42321 0.172008 5.12536 0.0789456 7.04665C-0.0141172 8.70377 0.000892936 10.3459 0.000892936 12C0.000892936 13.6541 -0.0141172 15.2992 0.0789456 16.9533C0.172008 18.8746 0.610305 20.5798 2.01525 21.9847C3.42321 23.3927 5.12536 23.828 7.04665 23.9211C8.70377 24.0141 10.3459 23.9991 12 23.9991C13.6571 23.9991 15.2992 24.0141 16.9533 23.9211C18.8746 23.828 20.5798 23.3897 21.9847 21.9847C23.3927 20.5768 23.828 18.8746 23.9211 16.9533C24.0171 15.2992 23.9991 13.6571 23.9991 12ZM21.3573 19.0788C21.1382 19.6252 20.874 20.0334 20.4507 20.4537C20.0274 20.877 19.6221 21.1412 19.0758 21.3603C17.4967 21.9877 13.7472 21.8467 11.997 21.8467C10.2468 21.8467 6.49428 21.9877 4.91521 21.3633C4.36884 21.1442 3.96057 20.88 3.54028 20.4567C3.117 20.0334 2.85282 19.6282 2.63367 19.0818C2.00925 17.4997 2.15035 13.7502 2.15035 12C2.15035 10.2498 2.00925 6.49728 2.63367 4.91822C2.85282 4.37185 3.117 3.96357 3.54028 3.54329C3.96357 3.123 4.36884 2.85582 4.91521 2.63667C6.49428 2.01225 10.2468 2.15335 11.997 2.15335C13.7472 2.15335 17.4997 2.01225 19.0788 2.63667C19.6252 2.85582 20.0334 3.12 20.4537 3.54329C20.877 3.96657 21.1412 4.37185 21.3603 4.91822C21.9847 6.49728 21.8437 10.2498 21.8437 12C21.8437 13.7502 21.9847 17.4997 21.3573 19.0788Z" fill="#242424"/>
</svg>
