<svg width="20" height="20" viewBox="0 0 20 20" fill="none" xmlns="http://www.w3.org/2000/svg">
<path d="M17.1307 1.66669H2.86803C2.20414 1.66669 1.66602 2.20481 1.66602 2.8687V17.1313C1.66602 17.7952 2.20414 18.3334 2.86803 18.3334H17.1307C17.7946 18.3334 18.3327 17.7952 18.3327 17.1313V2.8687C18.3327 2.20481 17.7946 1.66669 17.1307 1.66669V1.66669ZM7.57778 14.2643H5.54823V8.15841H7.57778V14.2643ZM6.56307 7.32465H6.54985C5.86879 7.32465 5.42832 6.85582 5.42832 6.26988C5.42832 5.67072 5.88227 5.21486 6.57655 5.21486C7.27082 5.21486 7.69807 5.67072 7.71129 6.26988C7.71129 6.85582 7.27082 7.32465 6.56307 7.32465ZM14.8959 14.2643H12.8666V10.9978C12.8666 10.1769 12.5727 9.61703 11.8384 9.61703C11.2778 9.61703 10.9439 9.99468 10.7971 10.3592C10.7435 10.4897 10.7304 10.672 10.7304 10.8545V14.2643H8.70095C8.70095 14.2643 8.72753 8.73125 8.70095 8.15841H10.7304V9.02295C11.0001 8.60689 11.4826 8.01511 12.5594 8.01511C13.8947 8.01511 14.8959 8.88778 14.8959 10.7632V14.2643Z" fill="#1F1F1F"/>
</svg>
