<svg width="20" height="20" viewBox="0 0 20 20" fill="none" xmlns="http://www.w3.org/2000/svg">
<path d="M15.9902 7.5C14.6967 7.49985 13.648 8.54869 13.648 9.84243C13.648 11.136 14.6967 12.1847 15.9902 12.1847C17.284 12.1847 18.3327 11.136 18.3327 9.84243C18.3312 8.54927 17.2834 7.50146 15.9902 7.5ZM15.9902 11.2509C15.2125 11.2509 14.5818 10.6202 14.5818 9.84243C14.5818 9.06455 15.2125 8.43399 15.9902 8.43399C16.7681 8.43399 17.3987 9.0644 17.3987 9.84243C17.3978 10.6199 16.7677 11.2497 15.9902 11.2509Z" fill="#1F1F1F"/>
<path d="M9.9995 7.5C8.70576 7.5 7.65692 8.54869 7.65692 9.84243C7.65692 11.136 8.70576 12.1847 9.9995 12.1847C11.2931 12.1847 12.3418 11.136 12.3418 9.84243C12.3418 8.54869 11.2931 7.5 9.9995 7.5ZM9.9995 11.2509C9.22147 11.2509 8.59076 10.6202 8.59076 9.84243C8.59076 9.0644 9.22147 8.43399 9.9995 8.43399C10.7772 8.43399 11.4078 9.0644 11.4078 9.84243C11.4078 10.6202 10.7772 11.2509 9.9995 11.2509Z" fill="#1F1F1F"/>
<path d="M4.00845 7.5C2.7147 7.5 1.66602 8.54869 1.66602 9.84243C1.66602 11.136 2.7147 12.1847 4.00845 12.1847C5.30205 12.1847 6.35074 11.136 6.35074 9.84243C6.34927 8.54927 5.30146 7.50146 4.00845 7.5ZM4.00845 11.2509C3.23056 11.2509 2.6 10.6202 2.6 9.84243C2.6 9.0644 3.23056 8.43399 4.00845 8.43399C4.78633 8.43399 5.41675 9.0644 5.41675 9.84243C5.41675 10.6202 4.78619 11.2509 4.00845 11.2509Z" fill="#1F1F1F"/>
</svg>
