<svg width="215" height="214" viewBox="0 0 215 214" fill="none" xmlns="http://www.w3.org/2000/svg">
<path d="M127 107L97 126.919L97 87.0814L127 107Z" fill="white"/>
<path d="M127.31 12.1874L127.209 12.5329C128.277 12.9404 128.596 13.8782 128.148 15.4038L123.677 30.6309C123.229 32.1565 122.244 32.7427 121.326 32.5671L121.225 32.9125L127.27 34.6874L127.371 34.342C126.475 33.9852 125.996 33.0627 126.469 31.4508L128.286 25.262L131.366 26.1664C133.525 26.8003 135.499 26.7858 137.28 26.1519C139.098 25.4975 140.26 24.3068 140.776 22.551C141.308 20.7375 141.04 19.0954 140 17.6332C138.96 16.1709 137.27 15.1118 134.996 14.4441L127.31 12.1874ZM131.398 25.738C130.333 25.4253 129.38 25.0516 128.481 24.6L131.625 13.892L134.158 14.6358C135.741 15.1007 136.913 16.0076 137.608 17.3684C138.303 18.7293 138.44 20.1767 137.984 21.7311C137.527 23.2855 136.658 24.4371 135.395 25.2233C134.141 25.9806 132.809 26.1522 131.398 25.738Z" fill="white"/>
<path d="M150.886 45.8363L151.081 45.5335C150.187 44.8162 150.145 43.8266 150.956 42.5647L161.807 25.6807L157.513 24.2051L157.302 24.5332C158.166 24.9098 158.555 25.802 157.728 27.0891L148.71 41.1212C147.883 42.4083 146.763 42.6518 145.932 42.2247L145.738 42.5276L150.886 45.8363Z" fill="white"/>
<path d="M161.994 56.1482C163.33 57.6899 165.665 58.6438 167.844 57.9065C166.322 59.2651 165.746 60.4786 166.827 61.7256C167.455 62.4512 168.602 62.7671 169.548 62.6221L169.889 62.3274C168.279 61.9359 168.284 60.9791 169.803 59.6629L174.088 55.9498C177.443 53.0422 177.77 50.2583 175.157 47.2429C174.293 46.2453 173.189 45.6134 171.867 45.37C170.567 45.1069 169.465 45.3471 168.604 46.0936C167.878 46.7223 167.646 47.5989 168.215 48.2564C168.785 48.9139 169.628 49.0167 170.172 48.5452C170.558 48.2112 170.957 47.3891 171.41 46.9962C172.34 46.1907 173.818 46.3389 174.781 47.4499C176.058 48.9236 175.828 50.9488 173.266 53.1688L172.178 54.1118L171.106 53.3333C170.541 52.9101 170.097 52.5806 169.711 52.3191C168.96 51.8187 167.539 50.8664 166.525 50.4749C164.908 49.8914 163.27 49.6041 161.955 50.7435C160.118 52.3348 160.501 54.4251 161.994 56.1482ZM163.745 56.3373C162.724 55.1583 162.824 53.7618 164.207 52.5634C164.728 52.1116 165.381 51.9031 165.898 51.8124C166.415 51.7218 167.308 52.0196 167.745 52.1572C168.244 52.3205 169.353 52.8677 169.761 53.1095L170.842 53.761L171.883 54.3672L169.162 56.7247C168.278 57.4909 167.277 57.8021 166.206 57.6192C165.134 57.4362 164.315 56.9948 163.745 56.3373Z" fill="white"/>
<path d="M190.195 72.6565C190.656 73.6662 190.362 74.3942 189.325 74.8677C188.861 75.0796 187.7 75.2803 185.855 75.43C184.294 75.5495 181.625 75.8447 177.864 76.2759C178.308 75.8754 180.422 73.7886 184.249 69.9632C185.265 68.9385 186.039 68.3214 186.612 68.0597C187.403 67.6983 187.95 67.8115 188.388 68.6996L188.716 68.55L186.123 62.8739L185.796 63.0235C186.113 63.9341 185.633 64.9778 183.616 66.9875L174.988 75.6107C174.041 76.5707 172.818 76.9975 171.291 76.9033C169.896 76.881 169.011 76.4605 168.65 75.6691C168.188 74.6594 168.416 73.929 169.343 73.5053C169.698 73.3433 170.665 73.7264 171.238 73.4647C171.975 73.1282 172.107 72.408 171.796 71.7258C171.36 70.7706 170.294 70.5317 169.202 71.0302C167.674 71.7281 166.91 73.594 167.745 75.4224C167.82 75.5861 167.895 75.7499 167.985 75.8739C168.582 76.8212 169.705 77.3307 171.342 77.375C172.039 77.3862 173.911 77.2239 176.917 76.8735C181.892 76.2837 185.69 75.9344 188.286 75.7709C190.076 75.646 191.284 76.0511 191.662 76.3732C191.843 76.5541 192.05 76.7896 192.214 77.0773L192.542 76.9278L190.523 72.5069L190.195 72.6565Z" fill="white"/>
<path d="M181.064 118.458C180.692 121.042 181.488 123.308 183.417 125.283C185.341 127.287 187.864 128.498 190.952 128.942C194.041 129.386 196.778 128.901 199.138 127.452C201.494 126.033 202.887 123.93 203.293 121.109C203.673 118.466 202.916 116.144 201.021 114.144C199.126 112.145 196.662 110.942 193.604 110.502C190.486 110.054 187.719 110.535 185.3 111.975C182.88 113.415 181.478 115.578 181.064 118.458ZM188.635 125.881C186.437 125.565 184.66 124.855 183.278 123.717C181.892 122.608 181.333 121.225 181.576 119.532C181.803 117.958 182.716 116.665 184.291 115.619C185.862 114.602 187.686 113.925 189.736 113.583C191.811 113.275 193.843 113.264 195.833 113.55C198 113.862 199.773 114.602 201.126 115.736C202.478 116.87 203.028 118.313 202.781 120.035C202.554 121.609 201.645 122.872 200.074 123.889C198.504 124.906 196.709 125.587 194.668 125.87C192.656 126.156 190.624 126.167 188.635 125.881Z" fill="white"/>
<path d="M175.882 136.505C175.371 137.624 175.304 138.781 175.682 139.975C176.047 141.198 176.646 142.197 177.44 142.988L174.18 141.17L172.336 145.208L172.663 145.358C173.206 144.386 174.083 144.126 175.939 144.974L187.182 150.108L188.031 145.648L187.704 145.499C187.414 146.422 186.517 146.87 184.88 146.122L178.385 143.156C177.696 142.643 177.134 141.925 176.686 141.027C176.238 140.13 176.195 139.286 176.544 138.522C177.404 136.639 179.351 136.275 181.889 137.434L191.058 141.621L191.932 137.107L191.605 136.957C191.265 137.989 190.353 138.398 188.743 137.662L182.985 135.033C179.438 133.413 177.066 133.912 175.882 136.505Z" fill="white"/>
<path d="M173.274 168.931C174.531 167.48 174.47 165.443 173.049 162.822L173.046 162.78L176.078 165.923L178.17 161.861L177.852 161.586C177.314 162.39 176.421 162.688 175.333 161.745L168.1 155.478C166.989 154.515 166.894 153.48 167.514 152.627L167.242 152.391L163.116 157.153L163.388 157.388C164.239 156.498 165.241 156.533 166.352 157.495L172.677 162.977C173.569 164.742 173.669 166.138 173.178 166.705C172.942 166.977 172.5 167.03 171.853 166.906C171.206 166.782 170.724 166.881 170.429 167.221C169.938 167.788 169.982 168.699 170.685 169.308C171.433 169.956 172.547 169.77 173.274 168.931Z" fill="white"/>
<path d="M127.062 178.967C125.191 179.516 123.854 180.503 123.004 181.972C122.153 183.441 121.98 185.087 122.529 186.958C124.6 194.01 136.13 188.873 137.939 195.033C138.48 196.876 137.327 198.809 135.226 199.426C133.758 199.857 132.207 199.687 130.582 198.944C128.957 198.202 127.592 196.852 126.494 194.923L126.062 195.05L128.826 201.586L129.056 201.519C129.004 200.064 129.981 200.09 131.535 200.165C132.471 200.266 134.058 200.238 135.324 199.866C136.994 199.376 138.206 198.394 138.954 196.893C139.68 195.429 139.839 193.944 139.408 192.476C138.807 190.432 136.973 189.189 134.946 188.783L131.662 188.247C129.311 187.905 127.274 187.784 125.68 186.72C124.873 186.207 124.348 185.486 124.086 184.593C123.342 182.06 124.857 180.083 127.303 179.365C128.944 178.883 130.632 179.201 132.387 180.28C134.113 181.368 135.721 183.115 137.135 185.483L137.567 185.356L133.992 177.12L133.733 177.196C133.803 178.926 132.786 178.975 131.201 178.69C130.199 178.577 128.472 178.553 127.062 178.967Z" fill="white"/>
<path d="M101.951 197.57C103.181 197.18 104.501 197 105.881 197H106.481V202.04H106.931C107.171 200.87 107.711 199.79 108.551 198.74C109.391 197.72 110.441 197.15 111.731 197V196.49H109.151V186.08C109.151 183.11 107.741 181.61 105.791 181.61C104.141 181.61 102.941 182.51 102.461 183.2V183.59C103.481 182.57 106.481 182.21 106.481 186.29V196.49H102.131L101.951 197.57Z" fill="white"/>
<path d="M80.1716 179.191C78.3505 180.283 77.1356 181.864 76.5271 183.937C75.9185 186.009 76.0853 187.997 77.036 189.871C77.9781 191.773 79.4279 193.012 81.3853 193.587C83.3426 194.161 85.2319 193.903 87.0531 192.812C88.8658 191.75 90.0806 190.168 90.6892 188.095C91.2977 186.023 91.1309 184.035 90.1887 182.133C89.2381 180.259 87.7884 179.02 85.831 178.446C83.8736 177.871 81.9844 178.129 80.1716 179.191ZM84.8813 178.698C85.8312 178.977 86.5883 179.7 87.1611 180.837C87.7254 182.004 88.029 183.312 88.0804 184.734C88.1319 186.156 87.953 187.511 87.5811 188.777C87.1163 190.36 86.3736 191.612 85.3989 192.483C84.4241 193.353 83.3999 193.647 82.3349 193.334C81.385 193.055 80.6567 192.341 80.084 191.203C79.5112 190.066 79.2364 188.766 79.1849 187.344C79.1335 185.922 79.2751 184.587 79.647 183.321C80.1203 181.709 80.863 180.458 81.8462 179.558C82.821 178.687 83.8163 178.386 84.8813 178.698Z" fill="white"/>
<path d="M55.4171 181.082C57.0323 182.12 59.0403 181.77 61.432 179.99L61.4734 179.981L58.7936 183.43L63.1126 184.922L63.3397 184.569C62.4672 184.15 62.0453 183.309 62.8238 182.097L67.9978 174.047C68.7925 172.81 69.8037 172.568 70.7357 173.06L70.9303 172.757L65.6304 169.351L65.4358 169.654C66.4381 170.37 66.5464 171.366 65.7516 172.603L61.2265 179.644C59.6061 180.778 58.2381 181.076 57.6071 180.67C57.3043 180.476 57.1889 180.045 57.2194 179.387C57.25 178.729 57.0841 178.266 56.7055 178.023C56.0746 177.617 55.1787 177.79 54.6759 178.573C54.1407 179.406 54.4833 180.482 55.4171 181.082Z" fill="white"/>
<path d="M37.5057 163.297C36.7788 162.459 36.8559 161.677 37.7175 160.931C38.1029 160.597 39.1609 160.077 40.8885 159.414C42.3531 158.859 44.8303 157.824 48.3172 156.351C48.0043 156.86 46.5637 159.458 43.9697 164.206C43.2835 165.476 42.7151 166.286 42.239 166.699C41.5815 167.268 41.0253 167.314 40.3543 166.585L40.0822 166.821L44.1686 171.537L44.4406 171.301C43.88 170.516 44.0463 169.38 45.4159 166.883L51.2644 156.179C51.9023 154.991 52.9558 154.237 54.4476 153.897C55.7927 153.525 56.76 153.679 57.3297 154.337C58.0566 155.176 58.0445 155.94 57.2736 156.608C56.9789 156.864 55.9436 156.769 55.4674 157.181C54.8553 157.712 54.9308 158.44 55.4219 159.007C56.1095 159.8 57.1993 159.729 58.1062 158.944C59.3758 157.843 59.5831 155.838 58.2668 154.319C58.1489 154.183 58.031 154.047 57.9101 153.953C57.0699 153.212 55.8487 153.04 54.2662 153.458C53.5937 153.644 51.8434 154.327 49.0578 155.51C44.451 157.478 40.9052 158.883 38.4597 159.772C36.7774 160.396 35.5049 160.347 35.0515 160.145C34.8263 160.022 34.5618 159.854 34.323 159.625L34.051 159.86L37.2336 163.533L37.5057 163.297Z" fill="white"/>
<path d="M11.4915 116.648C11.397 115.358 11.9267 114.615 13.0211 114.428C13.6022 114.253 14.9303 114.426 16.5427 114.679C17.0392 114.759 18.1255 114.936 18.7196 115.063L19.9374 115.312L21.1807 115.528C26.3448 116.452 29.383 116.924 30.2655 116.949L16.9708 123.558C15.6392 124.205 14.6891 124.553 14.1121 124.545C13.026 124.58 12.6903 123.931 12.4351 123.21L12.0787 123.262L13.0906 130.299L13.4469 130.248C13.4632 129.518 13.6707 129.064 14.0521 128.555C14.2258 128.287 14.777 127.905 15.0229 127.718C15.2688 127.531 16.0576 127.115 16.4011 126.974L18.0423 126.162L33.9239 118.363C33.1637 117.502 32.6581 116.726 32.4115 116.065C32.0086 116.214 31.5674 116.307 31.0626 116.38C30.7657 116.423 30.405 116.444 29.9468 116.419C29.1237 116.386 26.2043 115.896 21.193 114.98C20.1364 114.799 17.5733 114.258 13.4827 113.422C11.8235 113.054 10.8808 112.189 10.659 110.857L10.3027 110.909L11.1352 116.699L11.4915 116.648Z" fill="white"/>
<path d="M15.3241 93.6754C15.4607 92.7251 14.7996 91.8421 13.8791 91.7097C12.9289 91.5731 12.0458 92.2342 11.9092 93.1844C11.7768 94.1049 12.4379 94.988 13.3881 95.1246C14.2493 95.2484 15.1917 94.5959 15.3241 93.6754ZM33.5552 93.1445L33.1989 93.0933C32.9518 94.1792 32.0689 94.6281 30.5545 94.4104L17.9343 92.5959L18.3714 97.1444L18.7574 97.1999C18.805 96.2368 19.4802 95.5459 21.1728 95.7892L30.1702 97.0829C31.7441 97.3092 32.3754 98.188 32.3279 99.151L32.6842 99.2022L33.5552 93.1445Z" fill="white"/>
<path d="M20.7345 61.0552L19.8724 65.5426L20.2272 65.7046C20.502 64.7417 21.2899 64.2441 22.6817 64.8797L28.2759 67.4345C26.5619 67.9379 25.336 68.9612 24.6132 70.5439C23.8405 72.2358 23.902 73.9789 24.7976 75.7731C25.6659 77.5548 27.0961 78.9005 29.0882 79.8103C31.1349 80.745 33.0909 81.0116 34.9414 80.5705C36.7646 80.1169 38.1073 78.9821 38.9173 77.2083C39.7523 75.38 39.3711 73.326 38.0881 71.5858L40.3946 73.0348L42.239 68.9961L41.8843 68.8341C41.3288 69.8337 40.3552 70.0157 38.9908 69.3925L20.7345 61.0552ZM38.4031 75.9511C37.78 77.3156 36.6515 78.0534 34.9779 78.1796C33.3042 78.3057 31.423 77.8753 29.3218 76.9157C27.6298 76.1431 26.3627 75.2346 25.5056 74.1506C24.6485 73.0665 24.5015 71.944 25.0249 70.7979C25.8599 68.9695 27.5348 68.1184 30.077 68.257L37.5814 71.6842C38.6889 73.0144 38.9889 74.6685 38.4031 75.9511Z" fill="white"/>
<path d="M51.0943 54.9939C49.9941 56.2636 48.6339 56.8713 47.0334 56.7943C45.4101 56.6978 43.8383 56.1296 42.3117 55.0053L47.5613 45.7401C46.2932 44.9588 44.9118 44.6748 43.4397 44.9077C41.9873 45.1179 40.7405 45.8238 39.7386 46.9801C38.4223 48.4992 37.9086 50.2373 38.2005 52.2368C38.4697 54.2167 39.4205 55.9139 41.0756 57.3481C42.7307 58.7822 44.5912 59.5211 46.6543 59.5224C48.7173 59.5237 50.3873 58.7875 51.7036 57.2685C53.4521 55.2506 53.7374 52.4017 52.4934 50.1725L51.8585 49.6224C52.7006 51.5826 52.2927 53.6109 51.0943 54.9939ZM39.5739 47.9489C40.2222 47.2007 41.0867 46.7986 42.1477 46.7653C43.2087 46.7319 44.0792 47.01 44.7367 47.5797C45.2582 48.0315 45.3202 48.6013 44.9032 49.3117L41.9746 54.7529C41.8416 54.6774 41.6829 54.5399 41.4562 54.3434C40.3906 53.4201 39.6317 52.3259 39.1601 51.0836C38.7081 49.8186 38.847 48.7878 39.5739 47.9489Z" fill="white"/>
<path d="M70.563 39.1964C70.931 37.1055 70.5311 35.1515 69.3633 33.3344C68.1956 31.5173 66.5843 30.3418 64.5457 29.8332C62.4909 29.2994 60.6054 29.5839 58.8892 30.6868C57.1731 31.7898 56.131 33.3866 55.763 35.4775C55.3788 37.5432 55.7787 39.4972 56.9464 41.3143C58.1142 43.1314 59.7255 44.3068 61.7803 44.8407C63.8189 45.3493 65.7044 45.0647 67.4205 43.9618C69.1367 42.8589 70.1788 41.262 70.563 39.1964ZM67.8515 43.0786C67.0186 43.6139 65.9768 43.7129 64.7421 43.4009C63.4912 43.0636 62.3034 42.4362 61.195 41.5438C60.0865 40.6514 59.18 39.6292 58.4664 38.5188C57.5743 37.1307 57.1148 35.7499 57.0952 34.4431C57.0756 33.1362 57.5245 32.1701 58.4583 31.57C59.2911 31.0348 60.3078 30.952 61.5425 31.264C62.7772 31.576 63.9397 32.2197 65.0481 33.1121C66.1566 34.0045 67.0721 34.9852 67.7857 36.0957C68.694 37.509 69.1535 38.8898 69.1893 40.2218C69.209 41.5287 68.7853 42.4785 67.8515 43.0786Z" fill="white"/>
</svg>
