<svg width="133" height="27" viewBox="0 0 133 27" fill="none" xmlns="http://www.w3.org/2000/svg">
<g clip-path="url(#clip0)">
<path d="M26.2334 0.295166H28.1102L36.0209 23.7823L43.8988 0.295166H45.8132L36.7107 26.7051H35.3031L26.2334 0.295166Z" fill="black"/>
<path d="M54.7608 20.5281L52.4664 26.7051H50.4395L60.4991 0.295166H62.1414L72.2011 26.7051H70.1694L67.9172 20.5281H54.7608ZM61.3296 2.82769L55.23 18.9941H67.3542L61.3296 2.82769Z" fill="black"/>
<path d="M81.6084 0.295166H83.3304L98.739 23.6008V0.295166H100.536V26.7051H98.814L83.4054 3.40409V26.7051H81.6084V0.295166Z" fill="black"/>
<path d="M115.565 20.5281L113.27 26.7051H111.243L121.303 0.295166H122.931L132.986 26.7051H130.959L128.707 20.5281H115.565ZM122.133 2.82769L116.034 18.9941H128.186L122.133 2.82769Z" fill="black"/>
<path d="M7.50751 13.8381L7.93917 12.1634C4.04949 11.0197 2.56212 9.46293 2.56212 6.77156C2.56212 3.51286 4.85652 1.55219 8.71805 1.55219C11.3972 1.55219 13.5743 2.36914 14.6065 3.77156L16.0611 2.86384C14.7614 1.0348 12.0822 0 8.75559 0C3.75389 0 0.727539 2.59153 0.727539 6.88048C0.727539 10.4387 2.71696 12.4947 7.50751 13.8381Z" fill="black"/>
<path d="M15.1787 14.5734C14.0338 13.8155 13.4145 13.5386 10.9183 12.9214L10.4867 14.578C12.6638 15.109 12.9969 15.2814 13.9588 15.9395C14.5834 16.4014 15.0833 17.0025 15.4158 17.6916C15.7483 18.3807 15.9036 19.1374 15.8684 19.8972C15.8684 23.3737 13.194 25.4479 8.60516 25.4479C5.24099 25.4479 2.67914 24.4131 1.49206 22.5613L0 23.4872C1.5296 25.7565 4.51372 27.0001 8.6427 27.0001C14.3388 27.0001 17.703 24.3359 17.703 19.7383C17.703 17.5326 16.8256 15.6854 15.1787 14.5734Z" fill="black"/>
</g>
<defs>
<clipPath id="clip0">
<rect width="133" height="27" fill="white"/>
</clipPath>
</defs>
</svg>
