<svg width="20" height="20" viewBox="0 0 20 20" fill="none" xmlns="http://www.w3.org/2000/svg">
<path d="M18.3327 4.93644C17.7129 5.20831 17.0525 5.38852 16.3639 5.47602C17.0723 5.0531 17.6129 4.38852 17.8671 3.58748C17.2066 3.98123 16.4775 4.25935 15.7004 4.41456C15.0733 3.74685 14.1796 3.33331 13.2046 3.33331C11.3129 3.33331 9.78997 4.86873 9.78997 6.75102C9.78997 7.02185 9.81289 7.28227 9.86914 7.53019C7.02852 7.39165 4.51497 6.03019 2.82643 3.95623C2.53164 4.46769 2.35872 5.0531 2.35872 5.68331C2.35872 6.86665 2.9681 7.9156 3.87643 8.5229C3.32747 8.51248 2.78893 8.3531 2.33268 8.10206C2.33268 8.11248 2.33268 8.12602 2.33268 8.13956C2.33268 9.79998 3.51706 11.1791 5.07018 11.4969C4.79206 11.5729 4.48893 11.6094 4.17435 11.6094C3.9556 11.6094 3.73477 11.5969 3.52747 11.551C3.97018 12.9041 5.22643 13.8989 6.72018 13.9312C5.55768 14.8406 4.08164 15.3885 2.48372 15.3885C2.20352 15.3885 1.93477 15.376 1.66602 15.3416C3.17956 16.3177 4.97331 16.875 6.90768 16.875C13.1952 16.875 16.6327 11.6666 16.6327 7.15206C16.6327 7.00102 16.6275 6.85519 16.6202 6.7104C17.2983 6.22915 17.8681 5.6281 18.3327 4.93644Z" fill="#1F1F1F"/>
</svg>
